<svg width="2092" height="1308" viewBox="0 0 2092 1308" preserveAspectRatio="none" fill="none" xmlns="http://www.w3.org/2000/svg">
<g filter="url(#filter0_d_1955_7)">
<path d="M1058.1 64.6057C809.911 27.7373 370.84 41.6118 41 175.562L51 1261C548.1 1299.62 1731 1169 1678.88 644.812C1667.31 528.392 1359.83 587 1288.47 384.311C1260.18 303.962 1359.86 109.432 1058.1 64.6057Z" fill="#101C2B"/>
<path d="M1058.1 64.6057C809.911 27.7373 370.84 41.6118 41 175.562L51 1261C548.1 1299.62 1731 1169 1678.88 644.812C1667.31 528.392 1359.83 587 1288.47 384.311C1260.18 303.962 1359.86 109.432 1058.1 64.6057Z" stroke="url(#paint0_linear_1955_7)"/>
</g>
<path d="M124.666 463.598C299.167 539.712 675.8 521.596 1109.75 413.754C1543.69 305.911 1703.14 117.992 2083.29 156.336" stroke="url(#paint1_linear_1955_7)"/>
<path d="M2091.43 154.977C1930.31 338.75 1755.06 519.391 1079.54 465.516C692.764 434.67 511.879 337.983 131.724 299.64" stroke="url(#paint2_linear_1955_7)"/>
<defs>
<filter id="filter0_d_1955_7" x="0.49707" y="6.49609" width="1720.55" height="1301.31" filterUnits="userSpaceOnUse" color-interpolation-filters="sRGB">
<feFlood flood-opacity="0" result="BackgroundImageFix"/>
<feColorMatrix in="SourceAlpha" type="matrix" values="0 0 0 0 0 0 0 0 0 0 0 0 0 0 0 0 0 0 127 0" result="hardAlpha"/>
<feOffset/>
<feGaussianBlur stdDeviation="20"/>
<feColorMatrix type="matrix" values="0 0 0 0 0 0 0 0 0 0 0 0 0 0 0 0 0 0 0.5 0"/>
<feBlend mode="normal" in2="BackgroundImageFix" result="effect1_dropShadow_1955_7"/>
<feBlend mode="normal" in="SourceGraphic" in2="effect1_dropShadow_1955_7" result="shape"/>
</filter>
<linearGradient id="paint0_linear_1955_7" x1="1330.94" y1="204.549" x2="159.255" y2="540.98" gradientUnits="userSpaceOnUse">
<stop stop-color="#BD9CEC"/>
<stop offset="1" stop-color="#BD9CEC" stop-opacity="0.2"/>
</linearGradient>
<linearGradient id="paint1_linear_1955_7" x1="1227.45" y1="559.052" x2="1235.69" y2="190.641" gradientUnits="userSpaceOnUse">
<stop stop-color="#BD9CEC"/>
<stop offset="1" stop-color="#BD9CEC" stop-opacity="0"/>
</linearGradient>
<linearGradient id="paint2_linear_1955_7" x1="978.411" y1="87.1449" x2="970.17" y2="455.557" gradientUnits="userSpaceOnUse">
<stop stop-color="#BD9CEC"/>
<stop offset="1" stop-color="#BD9CEC" stop-opacity="0"/>
</linearGradient>
</defs>
</svg>
