<svg width="2439" height="660" viewBox="0 0 2439 660" preserveAspectRatio="none" fill="none" xmlns="http://www.w3.org/2000/svg">
<g filter="url(#filter0_d_1842_133)">
<path d="M1320.09 351.349C1642.09 353.349 2122.09 59.3487 2254.09 45.3487C2552.09 -12.2656 2302.09 481.349 2254.09 449.349C2206.09 417.349 2106 380.001 1922.09 399.349C1679.42 424.878 1381.09 657.349 1155.09 613.349C929.092 569.349 806.092 378.349 306.092 442.349C-3.40894 481.965 -91.9084 55.3487 316.092 69.3487C724.092 83.3487 998.092 349.349 1320.09 351.349Z" fill="#101C2B"/>
<path d="M1320.09 351.349C1642.09 353.349 2122.09 59.3487 2254.09 45.3487C2552.09 -12.2656 2302.09 481.349 2254.09 449.349C2206.09 417.349 2106 380.001 1922.09 399.349C1679.42 424.878 1381.09 657.349 1155.09 613.349C929.092 569.349 806.092 378.349 306.092 442.349C-3.40894 481.965 -91.9084 55.3487 316.092 69.3487C724.092 83.3487 998.092 349.349 1320.09 351.349Z" stroke="url(#paint0_linear_1842_133)"/>
</g>
<defs>
<filter id="filter0_d_1842_133" x="0.729492" y="0.165527" width="2437.63" height="659.208" filterUnits="userSpaceOnUse" color-interpolation-filters="sRGB">
<feFlood flood-opacity="0" result="BackgroundImageFix"/>
<feColorMatrix in="SourceAlpha" type="matrix" values="0 0 0 0 0 0 0 0 0 0 0 0 0 0 0 0 0 0 127 0" result="hardAlpha"/>
<feOffset/>
<feGaussianBlur stdDeviation="20"/>
<feColorMatrix type="matrix" values="0 0 0 0 0 0 0 0 0 0 0 0 0 0 0 0 0 0 0.5 0"/>
<feBlend mode="normal" in2="BackgroundImageFix" result="effect1_dropShadow_1842_133"/>
<feBlend mode="normal" in="SourceGraphic" in2="effect1_dropShadow_1842_133" result="shape"/>
</filter>
<linearGradient id="paint0_linear_1842_133" x1="434.091" y1="431.349" x2="1862.74" y2="-415.648" gradientUnits="userSpaceOnUse">
<stop stop-color="#BD9CEC"/>
<stop offset="1" stop-color="#BD9CEC" stop-opacity="0.2"/>
</linearGradient>
</defs>
</svg>
