<svg width="166" height="144" viewBox="0 0 166 144" fill="none" xmlns="http://www.w3.org/2000/svg">
<g filter="url(#filter0_d_1842_368)">
<rect x="81.7373" y="20.0117" width="73.5311" height="73.5311" transform="rotate(45 81.7373 20.0117)" fill="#101C2B" fill-opacity="0.1" shape-rendering="crispEdges"/>
<rect x="81.7373" y="20.7188" width="72.5311" height="72.5311" transform="rotate(45 81.7373 20.7188)" stroke="#C49BFF" shape-rendering="crispEdges"/>
</g>
<path d="M81.625 50C82.542 50 83.458 50 84.375 50C84.485 50.0241 84.595 50.0533 84.7059 50.0713C85.8351 50.2466 86.9806 50.3506 88.0918 50.605C96.5652 52.542 103.231 59.6345 104.667 68.2076C104.801 69.0094 104.89 69.8189 105 70.625C105 71.542 105 72.458 105 73.375C104.976 73.4859 104.944 73.595 104.928 73.7076C104.778 74.7259 104.684 75.7546 104.476 76.7601C102.711 85.2902 95.4188 92.2684 86.8328 93.6605C86.0164 93.7929 85.194 93.8874 84.375 94C83.458 94 82.542 94 81.625 94C81.5296 93.9768 81.4351 93.9459 81.338 93.9313C80.3342 93.7843 79.3202 93.688 78.3267 93.4887C69.7974 91.782 62.7359 84.4523 61.3438 75.8766C61.2088 75.0456 61.1134 74.2086 61 73.375C61 72.458 61 71.542 61 70.625C61.1401 69.6505 61.2458 68.6699 61.4263 67.7031C63.0642 58.9418 70.3801 51.7841 79.1655 50.3386C79.9819 50.2045 80.8052 50.1117 81.625 50ZM102.25 71.9862C102.237 61.3816 93.6107 52.7577 83.0077 52.75C72.397 52.7431 63.7397 61.403 63.75 72.0129C63.7612 82.6133 72.3919 91.2414 82.9914 91.25C93.6012 91.2577 102.262 82.5944 102.25 71.9862Z" fill="#AE8DE5"/>
<path d="M84.374 82.8566C84.374 83.3791 84.3826 83.8655 84.3723 84.3511C84.356 85.1529 83.7553 85.7544 82.9896 85.7484C82.2264 85.7433 81.6395 85.1374 81.6266 84.3305C81.6189 83.8449 81.6249 83.3585 81.6249 82.9314C80.9872 82.6401 80.3573 82.4269 79.8056 82.0866C77.9313 80.929 76.9361 79.2215 76.821 77.0198C76.7728 76.1062 77.3306 75.4651 78.1401 75.4394C78.9505 75.4136 79.5263 76.0151 79.565 76.9287C79.6457 78.8554 81.2476 80.3275 83.1726 80.245C85.0357 80.1651 86.4967 78.5623 86.4331 76.6683C86.3721 74.8541 84.8836 73.4164 83.0136 73.3769C80.9305 73.333 79.2401 72.4977 78.0043 70.8228C75.4589 67.3733 77.1853 62.3949 81.3069 61.2476C81.4032 61.221 81.4968 61.184 81.6249 61.1402C81.6249 60.6615 81.6197 60.1769 81.6257 59.6922C81.6361 58.8543 82.2222 58.2467 83.0068 58.251C83.7862 58.2553 84.3637 58.868 84.3732 59.7094C84.3783 60.1812 84.374 60.6521 84.374 61.1136C84.8097 61.2812 85.2377 61.4049 85.6287 61.6017C87.8356 62.7129 89.0267 64.5115 89.1762 66.9788C89.2312 67.888 88.6649 68.5351 87.8579 68.5618C87.0484 68.5884 86.4718 67.986 86.4331 67.0725C86.3506 65.1269 84.7272 63.6522 82.7833 63.7579C80.909 63.8601 79.4567 65.5127 79.5684 67.4171C79.6724 69.1926 81.1505 70.5865 82.9836 70.6234C85.0151 70.6647 86.6789 71.4613 87.9147 73.0735C90.5375 76.4964 88.9072 81.4919 84.7762 82.7363C84.6542 82.7724 84.5313 82.8094 84.374 82.8566Z" fill="#AE8DE5"/>
<g filter="url(#filter1_d_1842_368)">
<rect x="132.003" y="59.002" width="18.3884" height="18.3884" transform="rotate(45 132.003 59.002)" fill="#101C2B" fill-opacity="0.1" shape-rendering="crispEdges"/>
<rect x="132.003" y="59.7091" width="17.3884" height="17.3884" transform="rotate(45 132.003 59.7091)" stroke="#EEE4FF" shape-rendering="crispEdges"/>
</g>
<g filter="url(#filter2_d_1842_368)">
<rect x="33.0029" y="59.002" width="18.3884" height="18.3884" transform="rotate(45 33.0029 59.002)" fill="#101C2B" fill-opacity="0.1" shape-rendering="crispEdges"/>
<rect x="33.0029" y="59.7091" width="17.3884" height="17.3884" transform="rotate(45 33.0029 59.7091)" stroke="#EEE4FF" shape-rendering="crispEdges"/>
</g>
<defs>
<filter id="filter0_d_1842_368" x="9.74316" y="0.0117188" width="143.988" height="143.989" filterUnits="userSpaceOnUse" color-interpolation-filters="sRGB">
<feFlood flood-opacity="0" result="BackgroundImageFix"/>
<feColorMatrix in="SourceAlpha" type="matrix" values="0 0 0 0 0 0 0 0 0 0 0 0 0 0 0 0 0 0 127 0" result="hardAlpha"/>
<feOffset/>
<feGaussianBlur stdDeviation="10"/>
<feComposite in2="hardAlpha" operator="out"/>
<feColorMatrix type="matrix" values="0 0 0 0 0.737167 0 0 0 0 0.308333 0 0 0 0 1 0 0 0 0.7 0"/>
<feBlend mode="normal" in2="BackgroundImageFix" result="effect1_dropShadow_1842_368"/>
<feBlend mode="normal" in="SourceGraphic" in2="effect1_dropShadow_1842_368" result="shape"/>
</filter>
<filter id="filter1_d_1842_368" x="99" y="39.002" width="66.0059" height="66.0054" filterUnits="userSpaceOnUse" color-interpolation-filters="sRGB">
<feFlood flood-opacity="0" result="BackgroundImageFix"/>
<feColorMatrix in="SourceAlpha" type="matrix" values="0 0 0 0 0 0 0 0 0 0 0 0 0 0 0 0 0 0 127 0" result="hardAlpha"/>
<feOffset/>
<feGaussianBlur stdDeviation="10"/>
<feComposite in2="hardAlpha" operator="out"/>
<feColorMatrix type="matrix" values="0 0 0 0 0.9145 0 0 0 0 0.775 0 0 0 0 1 0 0 0 0.5 0"/>
<feBlend mode="normal" in2="BackgroundImageFix" result="effect1_dropShadow_1842_368"/>
<feBlend mode="normal" in="SourceGraphic" in2="effect1_dropShadow_1842_368" result="shape"/>
</filter>
<filter id="filter2_d_1842_368" x="0" y="39.002" width="66.0059" height="66.0054" filterUnits="userSpaceOnUse" color-interpolation-filters="sRGB">
<feFlood flood-opacity="0" result="BackgroundImageFix"/>
<feColorMatrix in="SourceAlpha" type="matrix" values="0 0 0 0 0 0 0 0 0 0 0 0 0 0 0 0 0 0 127 0" result="hardAlpha"/>
<feOffset/>
<feGaussianBlur stdDeviation="10"/>
<feComposite in2="hardAlpha" operator="out"/>
<feColorMatrix type="matrix" values="0 0 0 0 0.9145 0 0 0 0 0.775 0 0 0 0 1 0 0 0 0.5 0"/>
<feBlend mode="normal" in2="BackgroundImageFix" result="effect1_dropShadow_1842_368"/>
<feBlend mode="normal" in="SourceGraphic" in2="effect1_dropShadow_1842_368" result="shape"/>
</filter>
</defs>
</svg>
