<svg width="166" height="144" viewBox="0 0 166 144" fill="none" xmlns="http://www.w3.org/2000/svg">
<g filter="url(#filter0_d_1842_348)">
<rect x="82.7832" y="20.0117" width="73.5311" height="73.5311" transform="rotate(45 82.7832 20.0117)" fill="#101C2B" fill-opacity="0.1" shape-rendering="crispEdges"/>
<rect x="82.7832" y="20.7188" width="72.5311" height="72.5311" transform="rotate(45 82.7832 20.7188)" stroke="#C49BFF" shape-rendering="crispEdges"/>
</g>
<path d="M62.001 69.5646C62.0451 69.4572 62.0924 69.3515 62.1318 69.2426C62.4543 68.3402 63.0826 67.7837 64.0438 67.6565C64.3632 67.6144 64.4851 67.4856 64.5654 67.1898C65.0308 65.4702 65.7529 63.8571 66.6861 62.3362C66.9525 61.9013 67.2558 61.7932 67.5968 62.0086C67.9209 62.213 67.9699 62.5302 67.7203 62.938C66.8305 64.3921 66.1573 65.9377 65.6887 67.5738C65.6229 67.8036 65.6293 67.9546 65.862 68.0938C66.0394 68.1995 66.2087 68.3593 66.3122 68.535C66.4951 68.8443 66.7101 68.8562 67.0391 68.7894C69.2392 68.3434 71.4667 68.12 73.7117 68.0811C73.9757 68.0763 74.1289 68.0015 74.2854 67.7702C74.8479 66.9386 75.6607 66.5785 76.6621 66.712C76.9477 66.7502 77.0905 66.6675 77.2502 66.4544C78.3446 64.9964 79.5811 63.6655 80.9588 62.4658C81.1586 62.2917 81.2292 62.1581 81.1433 61.8695C81.0334 61.5014 81.0206 61.0928 81.035 60.704C81.0431 60.4957 81.0029 60.3979 80.8304 60.2993C78.9745 59.2396 77.0215 58.4088 74.9297 57.8101C74.5678 58.4183 74.0623 58.8675 73.3514 59.0424C72.6421 59.2165 71.9754 59.1108 71.2829 58.6624C70.759 59.2038 70.2358 59.7627 69.687 60.2954C69.5393 60.4393 69.3042 60.5895 69.1205 60.576C68.9367 60.5633 68.684 60.3836 68.6142 60.2151C68.5468 60.0521 68.6038 59.7484 68.7265 59.6124C69.2312 59.0504 69.7728 58.5201 70.3192 57.9977C70.4853 57.8395 70.5303 57.7211 70.4548 57.4937C70.097 56.4133 70.4629 55.3638 71.3864 54.7405C72.3228 54.1085 73.4373 54.1697 74.3384 54.925C74.5004 55.0601 74.6112 55.0673 74.7925 54.9782C78.0405 53.3922 81.4779 52.7784 85.079 53.067C87.4123 53.2538 89.6462 53.835 91.7572 54.8478C91.9851 54.9568 92.1384 54.9743 92.359 54.8049C93.1839 54.1729 94.2141 54.1482 95.0855 54.7008C95.9729 55.2636 96.4054 56.263 96.1599 57.2711C96.0965 57.5295 96.1206 57.6996 96.3404 57.8459C96.4174 57.8968 96.4856 57.9628 96.5482 58.0311C97.0032 58.5256 97.4333 58.8341 98.2364 58.6354C99.2017 58.396 99.9985 58.9287 100.513 59.7651C101.022 60.5927 101.015 61.4537 100.489 62.2742C100.336 62.5119 100.336 62.6637 100.471 62.9023C102.573 66.6182 103.354 70.6037 102.855 74.8245C102.289 79.6113 100.164 83.6238 96.6156 86.9057C96.4576 87.052 96.4231 87.1688 96.4881 87.3819C96.8186 88.4655 96.4544 89.4903 95.5501 90.1025C94.6434 90.7162 93.557 90.6765 92.6567 89.9753C92.4898 89.8449 92.3759 89.8497 92.1993 89.9379C88.9024 91.5892 85.4032 92.2244 81.7323 91.9271C79.2762 91.7283 76.9333 91.0955 74.7323 89.9848C74.4708 89.8528 74.3023 89.8624 74.0615 90.0277C73.2327 90.5946 72.1936 90.5636 71.3623 89.9848C70.5303 89.406 70.1451 88.4448 70.3883 87.486C70.4516 87.2364 70.4107 87.0901 70.2157 86.9089C66.5216 83.4783 64.4145 79.2655 63.9114 74.2711C63.8569 73.7329 63.8601 73.1891 63.8208 72.6493C63.8127 72.5372 63.759 72.3583 63.6836 72.3321C62.7897 72.0244 62.2794 71.3788 62.001 70.5162C62.001 70.199 62.001 69.8818 62.001 69.5646ZM78.7346 69.5216C78.0935 71.1252 77.3489 71.5672 75.5893 71.4337C75.5788 71.4416 75.5644 71.448 75.5596 71.4583C73.3875 75.862 72.5563 80.5089 72.9896 85.384C72.9984 85.4802 73.1171 85.6281 73.207 85.6472C73.8834 85.7879 74.3913 86.1655 74.7869 86.699C74.8431 86.6942 74.8856 86.6998 74.9209 86.6855C75.7586 86.346 76.6075 86.0296 77.4315 85.6591C82.6831 83.2947 87.1123 79.8753 90.743 75.4358C90.8971 75.2482 90.8963 75.121 90.8152 74.8865C90.6588 74.4349 90.5529 73.9515 90.5288 73.4761C90.5143 73.1986 90.4662 73.0675 90.2134 72.9442C87.4244 71.5879 84.5101 70.5973 81.4667 69.9851C80.5568 69.8007 79.6357 69.6727 78.7346 69.5216ZM75.0661 88.8137C75.1103 88.8408 75.152 88.8726 75.1985 88.894C80.6587 91.4731 86.1221 91.4779 91.5919 88.9179C91.8086 88.8161 91.8206 88.6945 91.7981 88.4854C91.6642 87.2006 92.3197 86.1894 93.5457 85.8062C93.7744 85.7346 93.8306 85.6138 93.8386 85.4166C93.8763 84.4928 93.918 83.5682 93.9517 82.6443C93.9686 82.1983 94.166 81.9543 94.5383 81.9439C94.9242 81.9336 95.1609 82.1896 95.1505 82.6531C95.1328 83.4982 95.1513 84.3505 95.0462 85.186C94.9812 85.6988 95.1128 85.9747 95.5766 86.1337C95.6006 86.1417 95.6279 86.1409 95.6785 86.1472C97.5352 84.4904 99.0067 82.5346 100.055 80.2712C100.101 80.171 100.014 79.9492 99.9174 79.853C98.3857 78.3162 96.7199 76.9345 94.9282 75.7038C94.7798 75.602 94.6618 75.4271 94.4107 75.606C94.1692 75.7785 94.2414 75.947 94.2839 76.1506C94.4749 77.068 94.6755 77.9839 94.8408 78.9061C94.913 79.3092 94.6931 79.5668 94.3273 79.6113C93.9566 79.6566 93.7295 79.4285 93.6396 78.9538C93.4631 78.0229 93.2753 77.0943 93.0972 76.1887C92.7674 76.1323 92.4874 76.1315 92.2499 76.0321C91.953 75.9081 91.811 76.0019 91.6272 76.2269C88.583 79.9619 84.9691 83.0442 80.7085 85.3339C79.0275 86.2371 77.2398 86.9462 75.4946 87.7309C75.278 87.8279 75.1407 87.9154 75.148 88.1769C75.1536 88.3828 75.0974 88.5911 75.0661 88.8137ZM71.0799 86.1321C71.7876 85.9803 71.8077 85.5716 71.7675 85.0644C71.3776 80.202 72.2562 75.567 74.3705 71.1642C74.5077 70.8787 74.5181 70.6856 74.3095 70.428C74.1402 70.2189 73.9982 69.9414 73.9685 69.6806C73.9219 69.268 73.7125 69.2402 73.3787 69.2752C72.0789 69.4103 70.7758 69.5161 69.4776 69.6616C68.6054 69.7594 67.7388 69.9064 66.8514 70.0336C66.8072 71.254 66.1581 71.9902 64.9834 72.3837C65.2843 77.7541 67.2405 82.3748 71.0799 86.1321ZM91.6545 57.8825C89.6494 58.4732 87.7606 59.2817 85.9769 60.3288C85.8782 60.3868 85.8236 60.5712 85.8068 60.7048C85.7594 61.0801 85.8012 61.476 85.6969 61.8321C85.6054 62.143 85.6768 62.3004 85.9007 62.4976C88.4907 64.7793 90.5721 67.4554 92.1303 70.521C92.3895 71.0298 92.6174 71.4361 93.297 71.3597C93.496 71.3375 93.6204 71.355 93.7367 71.1586C95.193 68.7004 96.3468 66.1118 97.195 63.3888C97.2559 63.1932 97.2287 63.0899 97.0545 62.9635C96.3204 62.4308 95.9697 61.693 96.0508 60.801C96.0877 60.3924 96.2642 59.9964 96.3966 59.5266C96.0997 59.2515 95.7426 58.9208 95.392 58.5948C93.9694 59.587 92.4168 59.1044 91.6545 57.8825ZM100.69 78.771C100.705 78.7312 100.741 78.6462 100.772 78.5603C101.328 77.0211 101.65 75.4342 101.755 73.8044C101.989 70.1672 101.253 66.7414 99.4601 63.5502C99.4007 63.4453 99.2097 63.295 99.1648 63.3196C98.9064 63.4604 98.482 63.2123 98.3584 63.6647C98.2573 64.0336 98.1329 64.3969 98.0094 64.7586C97.1789 67.1779 96.1133 69.4906 94.8135 71.6984C94.7421 71.8193 94.6931 72.0538 94.7597 72.1373C95.3142 72.8345 95.441 73.6089 95.2709 74.3546C97.1035 75.8485 98.892 77.3057 100.69 78.771ZM78.0606 67.3616C78.2187 67.6136 78.3856 67.8251 78.4899 68.0636C78.5838 68.279 78.7226 68.3371 78.9392 68.3752C80.4453 68.6447 81.961 68.8761 83.4494 69.2243C86.0242 69.8269 88.4811 70.7682 90.8546 71.9258C90.9749 71.9846 91.1819 71.9703 91.2959 71.9019C91.3552 71.8662 91.3456 71.6189 91.2902 71.5052C89.7433 68.3545 87.6482 65.6149 85.0052 63.2855C84.8608 63.1583 84.7525 63.1058 84.5551 63.2091C83.7944 63.6066 83.0257 63.5868 82.2514 63.2179C82.1527 63.171 81.9578 63.1829 81.8799 63.2505C80.4549 64.4756 79.188 65.8462 78.0606 67.3616ZM85.1376 59.3723C86.0804 58.9033 86.9799 58.4104 87.9154 58.0017C88.8638 57.5867 89.8444 57.2409 90.8209 56.8911C91.4315 56.6724 91.4395 56.6939 91.4283 56.0118C91.3111 55.9545 91.1932 55.8933 91.072 55.8384C87.8352 54.3732 84.4467 53.8994 80.9259 54.3525C78.9825 54.603 77.125 55.1555 75.3718 56.0293C75.2635 56.0833 75.1512 56.259 75.1568 56.3711C75.1632 56.4864 75.2924 56.6629 75.4039 56.6955C77.5968 57.345 79.6782 58.2458 81.644 59.3938C82.98 58.4445 83.9188 58.4414 85.1376 59.3723ZM65.6253 70.0225C65.6269 69.3213 65.0853 68.7831 64.3897 68.7942C63.7502 68.8045 63.2078 69.3515 63.1981 69.9963C63.1885 70.6689 63.7205 71.2254 64.384 71.2349C65.0958 71.2461 65.6237 70.7301 65.6253 70.0225ZM76.2986 70.2904C77.0047 70.292 77.5391 69.7586 77.5302 69.0589C77.5222 68.4014 76.9581 67.8592 76.289 67.8672C75.6214 67.8751 75.0629 68.4372 75.0758 69.0884C75.0894 69.7745 75.6125 70.2888 76.2986 70.2904ZM94.1259 73.7575C94.1395 73.0484 93.6244 72.5117 92.9199 72.5038C92.2764 72.4958 91.7227 73.0285 91.7019 73.6741C91.6802 74.3633 92.2234 74.9445 92.8958 74.9509C93.5802 74.958 94.113 74.4421 94.1259 73.7575ZM72.7424 55.5165C72.054 55.5157 71.5349 56.0277 71.5252 56.717C71.5164 57.3784 72.0588 57.9373 72.7232 57.9516C73.3819 57.9651 73.9532 57.4134 73.9604 56.7551C73.9693 56.0467 73.4485 55.5173 72.7424 55.5165ZM83.3972 59.8764C82.7361 59.878 82.1832 60.4353 82.1864 61.0968C82.1897 61.7558 82.7569 62.3211 83.4077 62.3147C84.0905 62.3076 84.6209 61.7837 84.6313 61.1063C84.6417 60.413 84.1009 59.874 83.3972 59.8764ZM94.2013 89.3353C94.8761 89.3297 95.4105 88.7891 95.4048 88.1181C95.3984 87.424 94.8889 86.9168 94.1957 86.9128C93.4864 86.9097 92.9672 87.432 92.9728 88.1435C92.9784 88.8129 93.5225 89.3408 94.2013 89.3353ZM92.5901 56.6971C92.5805 57.4015 93.1092 57.9397 93.8097 57.9397C94.499 57.9397 95.0157 57.4309 95.0293 56.7376C95.0422 56.0762 94.4982 55.5196 93.8298 55.5117C93.155 55.5037 92.5989 56.0348 92.5901 56.6971ZM72.7408 86.792C72.0837 86.7912 71.5284 87.3469 71.5252 88.0084C71.522 88.6913 72.0829 89.2502 72.7617 89.2407C73.4269 89.2311 73.9685 88.677 73.9621 88.0116C73.9556 87.3565 73.3908 86.792 72.7408 86.792ZM99.6647 60.9982C99.6647 60.3224 99.1295 59.7858 98.4563 59.7865C97.759 59.7873 97.2431 60.2914 97.2343 60.9783C97.2254 61.6843 97.747 62.2114 98.4563 62.2138C99.1215 62.2161 99.6647 61.6692 99.6647 60.9982Z" fill="#AF8DE5"/>
<g filter="url(#filter1_d_1842_348)">
<rect x="132.003" y="59.002" width="18.3884" height="18.3884" transform="rotate(45 132.003 59.002)" fill="#101C2B" fill-opacity="0.1" shape-rendering="crispEdges"/>
<rect x="132.003" y="59.7091" width="17.3884" height="17.3884" transform="rotate(45 132.003 59.7091)" stroke="#EEE4FF" shape-rendering="crispEdges"/>
</g>
<g filter="url(#filter2_d_1842_348)">
<rect x="33.0029" y="59.002" width="18.3884" height="18.3884" transform="rotate(45 33.0029 59.002)" fill="#101C2B" fill-opacity="0.1" shape-rendering="crispEdges"/>
<rect x="33.0029" y="59.7091" width="17.3884" height="17.3884" transform="rotate(45 33.0029 59.7091)" stroke="#EEE4FF" shape-rendering="crispEdges"/>
</g>
<defs>
<filter id="filter0_d_1842_348" x="10.7891" y="0.0117188" width="143.988" height="143.989" filterUnits="userSpaceOnUse" color-interpolation-filters="sRGB">
<feFlood flood-opacity="0" result="BackgroundImageFix"/>
<feColorMatrix in="SourceAlpha" type="matrix" values="0 0 0 0 0 0 0 0 0 0 0 0 0 0 0 0 0 0 127 0" result="hardAlpha"/>
<feOffset/>
<feGaussianBlur stdDeviation="10"/>
<feComposite in2="hardAlpha" operator="out"/>
<feColorMatrix type="matrix" values="0 0 0 0 0.737167 0 0 0 0 0.308333 0 0 0 0 1 0 0 0 0.7 0"/>
<feBlend mode="normal" in2="BackgroundImageFix" result="effect1_dropShadow_1842_348"/>
<feBlend mode="normal" in="SourceGraphic" in2="effect1_dropShadow_1842_348" result="shape"/>
</filter>
<filter id="filter1_d_1842_348" x="99" y="39.002" width="66.0059" height="66.0054" filterUnits="userSpaceOnUse" color-interpolation-filters="sRGB">
<feFlood flood-opacity="0" result="BackgroundImageFix"/>
<feColorMatrix in="SourceAlpha" type="matrix" values="0 0 0 0 0 0 0 0 0 0 0 0 0 0 0 0 0 0 127 0" result="hardAlpha"/>
<feOffset/>
<feGaussianBlur stdDeviation="10"/>
<feComposite in2="hardAlpha" operator="out"/>
<feColorMatrix type="matrix" values="0 0 0 0 0.9145 0 0 0 0 0.775 0 0 0 0 1 0 0 0 0.5 0"/>
<feBlend mode="normal" in2="BackgroundImageFix" result="effect1_dropShadow_1842_348"/>
<feBlend mode="normal" in="SourceGraphic" in2="effect1_dropShadow_1842_348" result="shape"/>
</filter>
<filter id="filter2_d_1842_348" x="0" y="39.002" width="66.0059" height="66.0054" filterUnits="userSpaceOnUse" color-interpolation-filters="sRGB">
<feFlood flood-opacity="0" result="BackgroundImageFix"/>
<feColorMatrix in="SourceAlpha" type="matrix" values="0 0 0 0 0 0 0 0 0 0 0 0 0 0 0 0 0 0 127 0" result="hardAlpha"/>
<feOffset/>
<feGaussianBlur stdDeviation="10"/>
<feComposite in2="hardAlpha" operator="out"/>
<feColorMatrix type="matrix" values="0 0 0 0 0.9145 0 0 0 0 0.775 0 0 0 0 1 0 0 0 0.5 0"/>
<feBlend mode="normal" in2="BackgroundImageFix" result="effect1_dropShadow_1842_348"/>
<feBlend mode="normal" in="SourceGraphic" in2="effect1_dropShadow_1842_348" result="shape"/>
</filter>
</defs>
</svg>
