<svg width="305" height="205" viewBox="0 0 305 205" preserveAspectRatio="none" fill="none" xmlns="http://www.w3.org/2000/svg">
<path d="M294.5 88.4996C294.5 117.17 280.6 141.238 255.274 159.112C229.934 176.998 193.155 188.677 147.458 192.501C87.7785 197.495 51.0686 185.802 29.2758 165.774C7.48362 145.747 0.5 117.287 0.5 88.4996C0.5 59.7492 10.0873 34.5415 30.1235 18.6271C50.1589 2.71328 80.7424 -3.9873 122.901 4.4892C133.247 6.56916 143.383 8.51403 153.233 10.4039C188.411 17.1535 219.937 23.2022 244.264 32.2006C259.825 37.9566 272.386 44.9014 281.053 53.9658C289.705 63.0147 294.5 74.1986 294.5 88.4996Z" stroke="url(#paint0_linear_1941_37)"/>
<path d="M304.5 98.4996C304.5 127.17 290.6 151.238 265.274 169.112C239.934 186.998 203.155 198.677 157.458 202.501C97.7785 207.495 61.0686 195.802 39.2758 175.774C17.4836 155.747 10.5 127.287 10.5 98.4996C10.5 69.7492 20.0873 44.5415 40.1235 28.6271C60.1589 12.7133 90.7424 6.0127 132.901 14.4892C143.247 16.5692 153.383 18.514 163.233 20.4039C198.411 27.1535 229.937 33.2022 254.264 42.2006C269.825 47.9566 282.386 54.9014 291.053 63.9658C299.705 73.0147 304.5 84.1986 304.5 98.4996Z" stroke="url(#paint1_linear_1941_37)"/>
<defs>
<linearGradient id="paint0_linear_1941_37" x1="169.363" y1="184.834" x2="144.732" y2="30.9582" gradientUnits="userSpaceOnUse">
<stop stop-color="#BD9CEC"/>
<stop offset="1" stop-color="#BD9CEC" stop-opacity="0"/>
</linearGradient>
<linearGradient id="paint1_linear_1941_37" x1="179.363" y1="194.834" x2="288.315" y2="104.958" gradientUnits="userSpaceOnUse">
<stop stop-color="#BD9CEC"/>
<stop offset="1" stop-color="#BD9CEC" stop-opacity="0"/>
</linearGradient>
</defs>
</svg>
